# xmcd
#
# Track frame offsets:
#	150
#	14290
#	33524
#	53367
#	73200
#	89372
#	106682
#	127144
#	141362
#	161491
#	180110
#	198445
#
# Disc length: 2911 seconds
#
# Revision: 1
# Processed by: cddbd v1.4PL0 Copyright (c) Steve Scherf et al.
# Submitted via: audiograbber 1.80.04
#
DISCID=9b0b5d0c
DTITLE=Charlie Landsborough - Further Down The Road 
DYEAR=1900
DGENRE=Country
TTITLE0=Further Down The Road 
TTITLE1=Love You Every Second 
TTITLE2=Saints 
TTITLE3=It's Raining Outside 
TTITLE4=God Knocking On Your Door
TTITLE5=The Twelfth Of Never 
TTITLE6=Uninvited 
TTITLE7=Loreto 
TTITLE8=I Want Someone Who Will Love Me 
TTITLE9=The Green Hills Are Rolling Still
TTITLE10=Oh, Nancy
TTITLE11=In The Bleak Mid-winter
EXTD=
EXTT0=
EXTT1=
EXTT2=
EXTT3=
EXTT4=
EXTT5=
EXTT6=
EXTT7=
EXTT8=
EXTT9=
EXTT10=
EXTT11=
PLAYORDER=
